<svg xmlns="http://www.w3.org/2000/svg" viewBox="0 0 64 64"><g id="Outline"><path d="M61,56V45a1,1,0,0,0-1-1h-.051A2.474,2.474,0,0,0,59,41.513V26h-.012a2.123,2.123,0,0,0-.383-1.784c-.358-.432-1.237-1.07-3.1-.471a9.956,9.956,0,0,0-2.618,1.37,19.359,19.359,0,0,0-.09-4.9.957.957,0,0,0,1.1-.525l1.264-2.53L57.69,15.9a1,1,0,0,0,0-1.79l-2.531-1.264L53.9,10.311a1.042,1.042,0,0,0-1.79,0l-1.264,2.53-.37.185A20.983,20.983,0,0,0,16.394,8.958l-.235-.117L14.9,6.311a1.042,1.042,0,0,0-1.79,0l-1.264,2.53L9.31,10.105a1,1,0,0,0,0,1.79l2.531,1.264.83,1.662a20.823,20.823,0,0,0-1.559,6.227c-2.945-.359-5.9.7-8.769,3.2a1,1,0,0,0-.272,1.125L6,35.193V58a4,4,0,0,0,8,0V35.193l.338-.846a20.864,20.864,0,0,0,14.374,9.389A41.353,41.353,0,0,1,26.308,56h-2.2A3.112,3.112,0,0,0,21,59.108V61a1,1,0,0,0,1,1H42a1,1,0,0,0,1-1V59.108A3.112,3.112,0,0,0,39.892,56h-2.2A37.884,37.884,0,0,1,35.27,43.736,21.08,21.08,0,0,0,49,35.314v6.2A2.474,2.474,0,0,0,48.051,44H48a1,1,0,0,0-1,1V56a1,1,0,0,0-1,1v4a1,1,0,0,0,1,1H61a1,1,0,0,0,1-1V57A1,1,0,0,0,61,56ZM51,32.57c.032,0,.061.008.094.008a8.625,8.625,0,0,0,4.825-2.234A13.184,13.184,0,0,0,57,29.325V41H51Zm6.048-7.062c.014.413-.605,1.8-2.406,3.3s-3.286,1.851-3.684,1.758c-.013-.414.606-1.8,2.406-3.3S56.65,25.426,57.048,25.508ZM52.033,14.48a.987.987,0,0,0,.447-.447L53,12.994l.52,1.039a.987.987,0,0,0,.447.447l1.039.52-1.039.52a.987.987,0,0,0-.447.447L53,17.006l-.52-1.039a.987.987,0,0,0-.447-.447L50.994,15Zm-39-4a.987.987,0,0,0,.447-.447L14,8.994l.52,1.039a.987.987,0,0,0,.447.447l1.039.52-1.039.52a.987.987,0,0,0-.447.447L14,13.006l-.52-1.039a.987.987,0,0,0-.447-.447L11.994,11ZM15.8,25.3,12.323,34H11V28a1,1,0,0,0-2,0v6H7.677L4.2,25.3C8.1,22.187,11.9,22.187,15.8,25.3ZM17,23A14.973,14.973,0,0,1,38.788,9.641l-7.612,7.612a1,1,0,1,0,1.414,1.414L40.559,10.7A15.108,15.108,0,0,1,44.7,15.047L24.059,35.683a15.208,15.208,0,0,1-4.353-4.132l7.844-7.844a1,1,0,0,0-1.414-1.414l-7.5,7.5a14.7,14.7,0,0,1-1.193-3.206l.487-1.217a1,1,0,0,0-.272-1.125c-.209-.182-.42-.345-.63-.512C17.015,23.49,17,23.247,17,23Zm30,0A15.017,15.017,0,0,1,32,38a14.841,14.841,0,0,1-6.108-1.322L45.684,16.886A14.894,14.894,0,0,1,47,23ZM8,36h4v2H8Zm4,22a2,2,0,0,1-4,0V40h4ZM33.267,44a39.743,39.743,0,0,0,2.3,12H31a1,1,0,0,0,0,2h8.892A1.109,1.109,0,0,1,41,59.108V60H23v-.892A1.109,1.109,0,0,1,24.108,58H27a1,1,0,0,0,.933-.64A43.069,43.069,0,0,0,30.71,44ZM32,42A18.915,18.915,0,0,1,15.276,32l1.009-2.522a16.745,16.745,0,0,0,1.169,2.278.97.97,0,0,0,.233.4c0,.005.011.006.016.011a17.242,17.242,0,0,0,5.779,5.5v0a.967.967,0,0,0,.412.235A16.972,16.972,0,0,0,41.04,8.629a.972.972,0,0,0-.256-.156A16.947,16.947,0,0,0,15.031,22.381a11.677,11.677,0,0,0-1.956-.88,18.791,18.791,0,0,1,1.2-5.3,1,1,0,0,0,.623-.515l1.264-2.53L18.69,11.9a1,1,0,0,0,0-1.79l-.434-.217a18.987,18.987,0,0,1,30.427,4.031l-.373.186a1,1,0,0,0,0,1.79l1.606.8a18.9,18.9,0,0,1,.592,10.594,8.768,8.768,0,0,0-1,1.43,3.392,3.392,0,0,0-.5,2.279H49v.467A19.046,19.046,0,0,1,32,42Zm18,1.5a.5.5,0,0,1,.5-.5h7a.5.5,0,0,1,0,1h-7A.5.5,0,0,1,50,43.5ZM49,46H59V56H49ZM60,60H48V58H60Z" fill="#ffffff"/></g></svg>