<svg xmlns="http://www.w3.org/2000/svg" id="Layer_3" data-name="Layer 3" viewBox="0 0 48 48"><title>LINE ICON</title><path d="M20.81,38h0a11,11,0,0,0-1-3.48s0,0,0-.05l0,0c-.08-.16-.15-.33-.24-.49l-2-3.48a10.33,10.33,0,0,0,1.85-1.56L37.88,14.24l2.76-.77a1.85,1.85,0,0,0,1.23-1.08,1.89,1.89,0,0,0-.1-1.64l-4-7.07a1.82,1.82,0,0,0-1.35-.93,1.8,1.8,0,0,0-1.56.48l-1.82,1.7L10.28,12.44a9.81,9.81,0,0,0-3.12,1.12.75.75,0,1,0,.73,1.31,8,8,0,0,1,2.72-1,8.42,8.42,0,0,1,8.76,4.17,8.14,8.14,0,0,1,.56,1.2A8.44,8.44,0,0,1,6.65,28.7h0a8.3,8.3,0,0,1-2-2.36A8.4,8.4,0,0,1,5,17.53a.75.75,0,0,0-.21-1,.74.74,0,0,0-1,.21,9.86,9.86,0,0,0-.39,10.38,9.75,9.75,0,0,0,2.2,2.67l7.91,14.07a3,3,0,0,0,1.69,1.38,2.75,2.75,0,0,0,.85.14A2.67,2.67,0,0,0,17.32,45l2.08-1.17a3.48,3.48,0,0,0,1.7-3.53ZM35.91,4.32a.38.38,0,0,1,.31-.09.38.38,0,0,1,.26.18l4,7.08a.33.33,0,0,1,0,.32.34.34,0,0,1-.24.21L38,12.65l-3.37-6-.43-.77Zm-3,2.26,3.78,6.72-15.19,12a.85.85,0,0,0,0-.17,6.36,6.36,0,0,0,.18-.66c0-.09.05-.19.07-.28q.08-.37.12-.75a.78.78,0,0,0,0-.16A8.87,8.87,0,0,0,22,22.4v-.28l0-.66,0-.29c0-.27-.06-.54-.11-.81,0,0,0-.07,0-.11-.06-.29-.14-.59-.23-.88a2.76,2.76,0,0,0-.08-.27l-.24-.64-.11-.27c-.13-.29-.27-.57-.42-.85s-.32-.53-.5-.78L20,16.34c-.13-.18-.26-.35-.4-.51s-.13-.16-.2-.23-.32-.35-.49-.51L18.79,15c-.21-.2-.43-.38-.66-.56l-.24-.18a5.25,5.25,0,0,0-.49-.33,2.9,2.9,0,0,0-.29-.19l-.52-.28-.26-.14c-.25-.12-.51-.23-.77-.33l-.28-.1-.57-.18-.15-.05ZM18.67,42.52l-2.09,1.17a1.16,1.16,0,0,1-.95.08,1.47,1.47,0,0,1-.83-.69L8.21,31.37l.2.07.58.2.33.1.65.16.28.06a9.77,9.77,0,0,0,1.79.16h.08a10.73,10.73,0,0,0,1.14-.07l.19,0a8.1,8.1,0,0,0,1-.18l.37-.1.76-.25.39-.16c.1,0,.2-.07.3-.12l1.86,3.31L16,35.69a.74.74,0,0,0-.28,1,.74.74,0,0,0,1,.29l2-1.13a9.36,9.36,0,0,1,.51,1.79l-1.63.92a.75.75,0,0,0-.29,1A.74.74,0,0,0,18,40a.81.81,0,0,0,.37-.09l1.12-.63.16,1.23A2,2,0,0,1,18.67,42.52Z" fill="#ffffff"/><path d="M10.81,26.54a4.59,4.59,0,0,0,1.21.17,4.48,4.48,0,1,0-2.2-8.38,4.48,4.48,0,0,0,1,8.21ZM9.15,21.43A3,3,0,0,1,12,19.26a2.82,2.82,0,0,1,.81.11,3,3,0,0,1-1.6,5.73,3,3,0,0,1-2.07-3.67Z" fill="#ffffff"/><path d="M40.76,27.81a3.82,3.82,0,0,1-2.38.78H32.46a.75.75,0,0,0,0,1.5h5.92A5.33,5.33,0,0,0,41.7,29a4.06,4.06,0,0,0,1.6-3.25,3.51,3.51,0,0,0-1.13-2.92A3.53,3.53,0,0,0,39,22.43a3,3,0,0,0-2.34,3.34,2.06,2.06,0,0,0,3.56,1.08l.55-.61a.75.75,0,0,0,0-1.06.75.75,0,0,0-1.06.05l-.56.61a.55.55,0,0,1-.57.16.53.53,0,0,1-.39-.45,1.56,1.56,0,0,1,1.23-1.67,2.31,2.31,0,0,1,1.83.12,2.24,2.24,0,0,1,.55,1.73A2.54,2.54,0,0,1,40.76,27.81Z" fill="#ffffff"/><path d="M27.63,29.34a.75.75,0,0,0,.75.75h1.75a.75.75,0,0,0,0-1.5H28.38A.74.74,0,0,0,27.63,29.34Z" fill="#ffffff"/><path d="M44.34,38.76A5.33,5.33,0,0,0,41,37.65H31a.75.75,0,0,0,0,1.5H41a3.8,3.8,0,0,1,2.38.78A2.55,2.55,0,0,1,44.45,42a2.25,2.25,0,0,1-.56,1.73,2.31,2.31,0,0,1-1.83.12,1.56,1.56,0,0,1-1.23-1.67.55.55,0,0,1,.39-.45.57.57,0,0,1,.57.16l.56.61a.75.75,0,0,0,1.06.05.76.76,0,0,0,.05-1.06l-.56-.61a2,2,0,0,0-2.12-.58A2.07,2.07,0,0,0,39.34,42a3.06,3.06,0,0,0,2.35,3.34,5.2,5.2,0,0,0,1.3.18,2.9,2.9,0,0,0,1.82-.56A3.48,3.48,0,0,0,46,42,4.06,4.06,0,0,0,44.34,38.76Z" fill="#ffffff"/><path d="M26.52,32.77a.76.76,0,0,0-.75-.75H24.05a.75.75,0,0,0,0,1.5h1.72A.75.75,0,0,0,26.52,32.77Z" fill="#ffffff"/><path d="M28,33.52H38.21a.75.75,0,0,0,0-1.5H28a.75.75,0,0,0,0,1.5Z" fill="#ffffff"/><path d="M27.1,25.15H25.38a.75.75,0,0,0,0,1.5H27.1a.75.75,0,0,0,0-1.5Z" fill="#ffffff"/><path d="M35,25.15H29.34a.75.75,0,1,0,0,1.5H35a.75.75,0,0,0,0-1.5Z" fill="#ffffff"/><path d="M37.15,41.35H35.43a.75.75,0,0,0,0,1.5h1.72a.75.75,0,0,0,0-1.5Z" fill="#ffffff"/><path d="M33.19,41.35H27.51a.75.75,0,1,0,0,1.5h5.68a.75.75,0,0,0,0-1.5Z" fill="#ffffff"/><path d="M42.8,32.77a.76.76,0,0,0-.75-.75h-1.4a.75.75,0,0,0,0,1.5h1.4A.75.75,0,0,0,42.8,32.77Z" fill="#ffffff"/><path d="M29.12,35.59a.75.75,0,0,0-.75-.75H26.65a.75.75,0,0,0,0,1.5h1.72A.76.76,0,0,0,29.12,35.59Z" fill="#ffffff"/><path d="M30.6,36.34H40.81a.75.75,0,0,0,0-1.5H30.6a.75.75,0,1,0,0,1.5Z" fill="#ffffff"/><path d="M43.24,36.34h1.41a.75.75,0,1,0,0-1.5H43.24a.75.75,0,0,0,0,1.5Z" fill="#ffffff"/></svg>