<svg xmlns="http://www.w3.org/2000/svg" xmlns:xlink="http://www.w3.org/1999/xlink" version="1.1" id="Layer_1" x="0px" y="0px" viewBox="0 0 64 64" enable-background="new 0 0 64 64" xml:space="preserve">
<path d="M41,34c-0.3,0-0.6,0.1-0.8,0.4C40,34.6,40,35,40,35.3l2.8,10.1c1.2,4.4-0.3,9.1-3.9,11.9c-4.1,3.2-9.8,3.2-13.9,0L24.7,57  c-3.4-2.7-5-7.1-4-11.3L23,35.2c0.1-0.3,0-0.6-0.2-0.8C22.6,34.1,22.3,34,22,34H2v2h18.8l-2.1,9.3c-1.1,4.9,0.8,10.2,4.8,13.3  l0.4,0.3c2.4,1.9,5.3,2.8,8.2,2.8c2.9,0,5.8-0.9,8.2-2.8c4.2-3.3,6-8.8,4.6-14L42.3,36H62v-2H41z" fill="#ffffff"/>
<path d="M22.5,44.1c-0.3,2.7,0.5,5.3,2.3,7.3l0.4,0.4c1.7,1.9,4.2,3,6.8,3s5.1-1.1,6.8-3c2-2.3,2.8-5.4,2.1-8.4  c-2.5-10-1.6-20.6,2.6-30l4.5-10.1c0.2-0.4,0-1-0.4-1.2c-0.4-0.3-0.9-0.2-1.3,0.1L36,13.1c-3.9,4.1-7.1,8.9-9.4,14.1  c-0.2,0.4-0.1,0.8,0.2,1.1l1.7,1.7h-2.4c-0.4,0-0.8,0.3-0.9,0.7c-1.1,3.1-1.8,6.4-2.3,9.6L22.5,44.1z M24.5,44.4l0.5-3.8  c0.4-2.9,1-5.8,2-8.5H31c0.4,0,0.8-0.2,0.9-0.6c0.2-0.4,0.1-0.8-0.2-1.1l-3-3c2.2-4.8,5.1-9.1,8.7-12.9l6.3-6.6l-2.2,4.9  C37.3,22.5,36.4,33.6,39,44c0.6,2.3,0,4.8-1.6,6.6C36,52.1,34,52.9,32,52.9s-4-0.9-5.3-2.4l-0.4-0.4C24.9,48.6,24.2,46.5,24.5,44.4z  " fill="#ffffff"/>
<path d="M11,29h13c0.4,0,0.8-0.2,0.9-0.6c0.2-0.4,0.1-0.8-0.2-1.1l-9-9c-0.2-0.2-0.6-0.3-0.9-0.3c-0.3,0.1-0.6,0.3-0.7,0.6l-4,9  c-0.1,0.3-0.1,0.7,0.1,1S10.7,29,11,29z M15.3,20.7l6.3,6.3h-9L15.3,20.7z" fill="#ffffff"/>
</svg>